# xmcd
#
# Track frame offsets: 
#        150
#        26700
#        47567
#        64993
#        74765
#        87160
#        110882
#        125152
#        139587
#        155867
#        171199
#        183349
#        202589
#        229711
#
# Disc length: 3245 seconds
#
# Revision: 1
# Processed by: cddbd v1.5.2PL0 Copyright (c) Steve Scherf et al.
# Submitted via: ExactAudioCopy v0.99pb4
#
DISCID=ce0cab0e
DTITLE=Various Artist - Blues Music ROM
DYEAR=1900
DGENRE=Blues
TTITLE0=Music ROM Blues Environment
TTITLE1=Albert Collins - Brick
TTITLE2=William Clarke - Lollipop Mama
TTITLE3=Earl Hooker - Rocking With The Kid
TTITLE4=Sonny Boy Williamson - Pontiac Blues
TTITLE5=John Lee Hooker - Roll and Tumble
TTITLE6=A.C. Reed and S.R. Vaughn - These Blues is Killing Me
TTITLE7=Junior Wells - Chitlin Con Carne
TTITLE8=Hound Dog Taylor - Give Me Back My Wig
TTITLE9=James Cotton - No Cuttin Loose
TTITLE10=Johnny Shines - Dynaflow Blues
TTITLE11=Magic Sam - Sweet Home Chicago
TTITLE12=Johnnie Johnson - Slidin' Serenade
TTITLE13=Buddy Guy - This Is The End
EXTD=
EXTT0=
EXTT1=
EXTT2=
EXTT3=
EXTT4=
EXTT5=
EXTT6=
EXTT7=
EXTT8=
EXTT9=
EXTT10=
EXTT11=
EXTT12=
EXTT13=
PLAYORDER=
